HIERARCHY
ROOT SpineBase
{
  OFFSET 0.000000 0.000000 0.000000
  CHANNELS 6 Xposition Yposition Zposition Zrotation Xrotation Yrotation
  JOINT SpineMid
  {
    OFFSET -0.000000 30.722037 0.000000
    CHANNELS 3 Zrotation Xrotation Yrotation
    JOINT SpineShoulder
    {
      OFFSET 0.065847 22.893296 -0.803110
      CHANNELS 3 Zrotation Xrotation Yrotation
      JOINT Neck
      {
        OFFSET 0.039105 7.604898 -0.600878
        CHANNELS 3 Zrotation Xrotation Yrotation
        JOINT Head
        {
          OFFSET -5.729878 13.736435 1.905185
          CHANNELS 3 Zrotation Xrotation Yrotation
          End Site
          {
            OFFSET 0 0 0
          }
        }
      }
      JOINT ShoulderLeft
      {
        OFFSET -13.263056 -5.252208 13.454706
        CHANNELS 3 Zrotation Xrotation Yrotation
        JOINT ElbowLeft
        {
          OFFSET -0.847846 -27.962259 -0.663596
          CHANNELS 3 Zrotation Xrotation Yrotation
          JOINT WristLeft
          {
            OFFSET -1.208655 -21.007682 -9.353673
            CHANNELS 3 Zrotation Xrotation Yrotation
            JOINT HandLeft
            {
              OFFSET 1.795050 -4.056159 -2.273835
              CHANNELS 3 Zrotation Xrotation Yrotation
              JOINT HandTipLeft
              {
                OFFSET 0.811814 -6.703639 -1.682778
                CHANNELS 3 Zrotation Xrotation Yrotation
                End Site
                {
                  OFFSET 0 0 0
                }
              }
              JOINT ThumbLeft
              {
                OFFSET 2.245205 1.069671 -3.299245
                CHANNELS 3 Zrotation Xrotation Yrotation
                End Site
                {
                  OFFSET 0 0 0
                }
              }
            }
          }
        }
      }
      JOINT ShoulderRight
      {
        OFFSET 11.334784 -2.677301 -11.343037
        CHANNELS 3 Zrotation Xrotation Yrotation
        JOINT ElbowRight
        {
          OFFSET 6.967240 -21.277654 -5.774873
          CHANNELS 3 Zrotation Xrotation Yrotation
          JOINT WristRight
          {
            OFFSET -6.670069 -21.488554 -3.355166
            CHANNELS 3 Zrotation Xrotation Yrotation
            JOINT HandRight
            {
              OFFSET -2.188687 -4.123379 1.343848
              CHANNELS 3 Zrotation Xrotation Yrotation
              JOINT HandTipRight
              {
                OFFSET -2.627622 -5.987741 -0.981384
                CHANNELS 3 Zrotation Xrotation Yrotation
                End Site
                {
                  OFFSET 0 0 0
                }
              }
              JOINT ThumbRight
              {
                OFFSET -3.008074 1.768114 -1.034467
                CHANNELS 3 Zrotation Xrotation Yrotation
                End Site
                {
                  OFFSET 0 0 0
                }
              }
            }
          }
        }
      }
    }
  }
  JOINT HipLeft
  {
    OFFSET -5.453604 0.052794 1.375379
    CHANNELS 3 Zrotation Xrotation Yrotation
    JOINT KneeLeft
    {
      OFFSET -1.484438 -27.718671 -1.101211
      CHANNELS 3 Zrotation Xrotation Yrotation
      JOINT AnkleLeft
      {
        OFFSET -0.241364 -36.503404 4.758426
        CHANNELS 3 Zrotation Xrotation Yrotation
        JOINT FootLeft
        {
          OFFSET -1.968529 -8.043241 -5.429850
          CHANNELS 3 Zrotation Xrotation Yrotation
          End Site
          {
            OFFSET 0 0 0
          }
        }
      }
    }
  }
  JOINT HipRight
  {
    OFFSET 5.589866 2.224316 -8.342443
    CHANNELS 3 Zrotation Xrotation Yrotation
    JOINT KneeRight
    {
      OFFSET 8.178958 -22.682543 -7.192809
      CHANNELS 3 Zrotation Xrotation Yrotation
      JOINT AnkleRight
      {
        OFFSET 8.380916 -41.130961 9.480553
        CHANNELS 3 Zrotation Xrotation Yrotation
        JOINT FootRight
        {
          OFFSET -8.687718 -2.203497 -12.478515
          CHANNELS 3 Zrotation Xrotation Yrotation
          End Site
          {
            OFFSET 0 0 0
          }
        }
      }
    }
  }
}
MOTION
Frames: 5
Frame Time: 0.033333
-6.056064 72.788895 334.824503 -0.000000 0.000000 41.346515 -0.000000 0.000000 -41.346515 -0.000000 0.000000 0.000000 -0.000000 0.000000 0.000000 0.000000 0.000000 0.000000 -0.000000 0.000000 0.000000 -0.000000 0.000000 0.000000 -0.000000 0.000000 0.000000 -0.000000 0.000000 0.000000 0.000000 0.000000 0.000000 0.000000 0.000000 0.000000 -0.000000 0.000000 0.000000 -0.000000 0.000000 0.000000 -0.000000 0.000000 0.000000 -0.000000 0.000000 0.000000 0.000000 0.000000 0.000000 0.000000 0.000000 0.000000 -0.000000 0.000000 -41.346515 -0.000000 0.000000 0.000000 -0.000000 0.000000 0.000000 0.000000 0.000000 0.000000 -0.000000 0.000000 -41.346515 -0.000000 0.000000 0.000000 -0.000000 0.000000 0.000000 0.000000 0.000000 0.000000
-5.891288 72.848823 334.817928 -0.037963 0.034967 41.318967 0.005425 -0.051327 -41.318953 -0.000000 0.000000 0.000000 -0.000000 0.000000 0.000000 0.000000 0.000000 0.000000 -0.000000 0.000000 0.000000 -0.000000 0.000000 0.000000 -0.700038 0.263596 0.511422 -0.349309 -1.990152 -0.479182 0.000000 0.000000 0.000000 0.000000 0.000000 0.000000 -0.000000 0.000000 0.000000 -0.000000 0.000000 0.000000 0.737096 -1.439545 1.012925 -3.182958 2.750887 -1.045959 0.000000 0.000000 0.000000 0.000000 0.000000 0.000000 0.005425 -0.051327 -41.318953 -0.000000 0.000000 0.000000 -3.132758 3.827325 1.246525 0.000000 0.000000 0.000000 0.005425 -0.051327 -41.318953 -0.000000 0.000000 0.000000 2.698460 -3.843607 -0.047301 0.000000 0.000000 0.000000
-5.754601 72.898603 334.817138 -0.074443 0.069804 41.309787 0.009838 -0.101575 -41.309733 -0.000000 0.000000 0.000000 -0.000000 0.000000 0.000000 0.000000 0.000000 0.000000 -0.000000 0.000000 0.000000 -0.000000 0.000000 0.000000 -1.378896 0.428129 0.970765 -0.483101 -3.355984 -0.923894 0.000000 0.000000 0.000000 0.000000 0.000000 0.000000 -0.000000 0.000000 0.000000 -0.000000 0.000000 0.000000 1.546145 -2.285245 1.748963 -5.308248 4.302044 -1.645982 0.000000 0.000000 0.000000 0.000000 0.000000 0.000000 0.009838 -0.101575 -41.309733 -0.000000 0.000000 0.000000 -5.726357 6.862359 2.403978 0.000000 0.000000 0.000000 -0.291490 -0.817678 -41.656404 -0.250833 0.735310 0.345864 5.359383 -7.611924 0.090946 0.000000 0.000000 0.000000
-5.646004 72.938233 334.822133 -0.109430 0.104503 41.319039 0.013189 -0.150737 -41.318922 -0.000000 0.000000 0.000000 -0.000000 0.000000 0.000000 0.000000 0.000000 0.000000 -0.000000 0.000000 0.000000 0.002693 -0.890759 0.050246 -2.035792 1.387722 1.357270 -0.455043 -4.227989 -1.313955 0.000000 0.000000 0.000000 0.000000 0.000000 0.000000 -0.000000 0.000000 0.000000 0.839785 -0.183576 -0.072981 1.529551 -2.303172 2.220217 -6.446939 4.570298 -1.908106 0.000000 0.000000 0.000000 0.000000 0.000000 0.000000 0.013189 -0.150737 -41.318922 -0.000000 0.000000 0.000000 -7.748005 9.141149 3.377562 0.000000 0.000000 0.000000 -0.458571 -1.135234 -41.797872 -1.090141 0.806683 0.259516 8.590690 -10.700593 0.573341 0.000000 0.000000 0.000000
-5.565498 72.967716 334.832914 -0.142917 0.139058 41.346742 0.015428 -0.198807 -41.346542 -0.000000 0.000000 0.000000 -0.000000 0.000000 0.000000 0.000000 0.000000 0.000000 -0.000000 0.000000 0.000000 -0.034478 -1.107866 0.079099 -2.626717 1.579343 1.696698 -0.299209 -4.688015 -1.638888 0.000000 0.000000 0.000000 0.000000 0.000000 0.000000 -0.797999 0.026552 0.225965 1.882684 -0.294952 -0.311316 2.064320 -1.805723 2.277505 -6.621841 3.568121 -1.869784 0.000000 0.000000 0.000000 0.000000 0.000000 0.000000 0.015428 -0.198807 -41.346542 -0.000000 0.000000 0.000000 -9.183977 10.720178 4.102979 0.000000 0.000000 0.000000 -0.641049 -1.398232 -41.933361 -1.242280 1.058024 0.331959 10.651969 -13.254976 0.937945 0.000000 0.000000 0.000000
